<?xml version="1.0" encoding="UTF-8" standalone="no"?>
<!DOCTYPE svg PUBLIC "-//W3C//DTD SVG 1.1//EN" "http://www.w3.org/Graphics/SVG/1.1/DTD/svg11.dtd">
<svg width="100%" height="100%" viewBox="0 0 400 400" version="1.1" xmlns="http://www.w3.org/2000/svg" xmlns:xlink="http://www.w3.org/1999/xlink" xml:space="preserve" xmlns:serif="http://www.serif.com/" style="fill-rule:evenodd;clip-rule:evenodd;stroke-linecap:round;stroke-linejoin:round;stroke-miterlimit:10;">
    <g id="Text">
    </g>
    <rect id="ArtBoard1" x="0" y="0" width="400" height="400" style="fill:none;"/>
    <g id="Thermometer-Icon" serif:id="Thermometer Icon">
        <path d="M142.666,241.427L159.027,241.427C159.78,241.427 160.391,240.81 160.391,240.063C160.391,239.305 159.78,238.7 159.027,238.7L142.666,238.7C141.913,238.7 141.302,239.305 141.302,240.063C141.302,240.81 141.913,241.427 142.666,241.427" style="fill:rgb(100,255,255);fill-rule:nonzero;"/>
        <path d="M219.019,241.427L235.381,241.427C236.134,241.427 236.744,240.81 236.744,240.063C236.744,239.305 236.134,238.7 235.381,238.7L219.019,238.7C218.267,238.7 217.656,239.305 217.656,240.063C217.656,240.81 218.267,241.427 219.019,241.427" style="fill:rgb(100,255,255);fill-rule:nonzero;"/>
        <path d="M180.843,241.427L197.204,241.427C197.957,241.427 198.568,240.81 198.568,240.063C198.568,239.305 197.957,238.7 197.204,238.7L180.843,238.7C180.09,238.7 179.479,239.305 179.479,240.063C179.479,240.81 180.09,241.427 180.843,241.427" style="fill:rgb(100,255,255);fill-rule:nonzero;"/>
        <path d="M275.406,294.048L259.044,294.048C258.291,294.048 257.681,294.653 257.681,295.411C257.681,296.158 258.291,296.775 259.044,296.775L275.406,296.775C276.158,296.775 276.769,296.158 276.769,295.411C276.769,294.653 276.158,294.048 275.406,294.048" style="fill:rgb(100,255,255);fill-rule:nonzero;"/>
        <path d="M237.229,294.048L220.867,294.048C220.115,294.048 219.504,294.653 219.504,295.411C219.504,296.158 220.115,296.775 220.867,296.775L237.229,296.775C237.981,296.775 238.592,296.158 238.592,295.411C238.592,294.653 237.981,294.048 237.229,294.048" style="fill:rgb(100,255,255);fill-rule:nonzero;"/>
        <path d="M160.875,294.048L144.514,294.048C143.761,294.048 143.15,294.653 143.15,295.411C143.15,296.158 143.761,296.775 144.514,296.775L160.875,296.775C161.628,296.775 162.238,296.158 162.238,295.411C162.238,294.653 161.628,294.048 160.875,294.048" style="fill:rgb(100,255,255);fill-rule:nonzero;"/>
        <path d="M199.052,294.048L182.69,294.048C181.938,294.048 181.327,294.653 181.327,295.411C181.327,296.158 181.938,296.775 182.69,296.775L199.052,296.775C199.804,296.775 200.415,296.158 200.415,295.411C200.415,294.653 199.804,294.048 199.052,294.048" style="fill:rgb(100,255,255);fill-rule:nonzero;"/>
        <path d="M243.215,224.645L243.215,80.02C243.215,55.919 223.685,36.389 199.585,36.389C175.484,36.389 155.954,55.919 155.954,80.02L155.954,224.645C136.189,238.443 123.231,261.322 123.231,287.255C123.231,329.429 157.416,363.608 199.585,363.608C241.754,363.608 275.938,329.429 275.938,287.255C275.938,261.322 262.98,238.443 243.215,224.645" style="fill:rgb(238,245,252);fill-rule:nonzero;"/>
        <path d="M216.809,259.462L182.36,259.462C173.07,265.233 166.862,275.512 166.862,287.249C166.862,305.323 181.516,319.972 199.585,319.972C217.653,319.972 232.308,305.323 232.308,287.249C232.308,275.512 226.1,265.233 216.809,259.462Z" style="fill:rgb(237,84,72);fill-rule:nonzero;"/>
        <rect id="varTemp" x="182.275" y="69.118" width="34.619" height="190.344" style="fill:rgb(237,84,72);"/>
        <g opacity="0.1">
            <path d="M215.946,341.796C173.777,341.796 139.593,307.611 139.593,265.442C139.593,253.182 142.57,241.658 147.708,231.399C132.693,245.334 123.231,265.153 123.231,287.257C123.231,329.426 157.416,363.611 199.585,363.611C229.488,363.611 255.307,346.382 267.839,321.344C254.21,333.997 236.011,341.796 215.946,341.796" style="fill:rgb(0,0,100);fill-rule:nonzero;"/>
        </g>
        <g opacity="0.1">
            <path d="M210.492,303.613C192.424,303.613 177.769,288.959 177.769,270.89C177.769,267.722 178.244,264.662 179.084,261.766C171.639,267.765 166.862,276.944 166.862,287.252C166.862,305.32 181.516,319.975 199.585,319.975C214.485,319.975 227.039,310.005 230.993,296.376C225.381,300.897 218.259,303.613 210.492,303.613" style="fill:rgb(0,0,100);fill-rule:nonzero;"/>
        </g>
        <g opacity="0.5">
            <path d="M215.946,210.914C206.947,210.914 199.585,203.551 199.585,194.552L199.585,74.568C199.585,65.575 206.947,58.207 215.946,58.207C224.945,58.207 232.308,65.575 232.308,74.568L232.308,194.552C232.308,203.551 224.945,210.914 215.946,210.914" style="fill:white;fill-rule:nonzero;"/>
        </g>
        <g opacity="0.5">
            <path d="M254.123,270.906C254.123,285.97 241.917,298.175 226.854,298.175C211.79,298.175 199.585,285.97 199.585,270.906C199.585,255.843 211.79,243.637 226.854,243.637C241.917,243.637 254.123,255.843 254.123,270.906" style="fill:white;fill-rule:nonzero;"/>
        </g>
        <path d="M243.215,224.645L243.215,80.02C243.215,55.919 223.685,36.389 199.585,36.389C175.484,36.389 155.954,55.919 155.954,80.02L155.954,224.645C136.189,238.443 123.231,261.322 123.231,287.255C123.231,329.429 157.416,363.608 199.585,363.608C241.754,363.608 275.938,329.429 275.938,287.255C275.938,261.322 262.98,238.443 243.215,224.645Z" style="fill:none;fill-rule:nonzero;stroke:rgb(46,67,105);stroke-width:2px;"/>
        <path d="M215.946,258.944L215.946,85.479C215.946,76.447 208.616,69.118 199.585,69.118C190.553,69.118 183.223,76.447 183.223,85.479L183.223,258.944C173.455,264.605 166.862,275.152 166.862,287.249C166.862,305.323 181.516,319.972 199.585,319.972C217.653,319.972 232.308,305.323 232.308,287.249C232.308,275.152 225.714,264.605 215.946,258.944Z" style="fill:none;fill-rule:nonzero;stroke:rgb(46,67,105);stroke-width:2px;"/>
    </g>
</svg>
